# xmcd
#
# Track frame offsets: 
#        150
#        44550
#        125704
#        158110
#        178730
#        208558
#        249235
#        280112
#
# Disc length: 4181 seconds
#
# Revision: 0
# Processed by: cddbd v1.5.1PL0 Copyright (c) Steve Scherf et al.
# Submitted via: ExactAudioCopy v0.95a4
#
DISCID=70105308
DTITLE=Eric Clapton - HP Pavilion - San Jose, CA - 30 July 2004 - Disc
DTITLE=2
DYEAR=2004
DGENRE=Blues
TTITLE0=Got To Get Better In A Little While
TTITLE1=Have You Ever Loved A Woman
TTITLE2=Badge
TTITLE3=Wonderful Tonight
TTITLE4=Layla
TTITLE5=Cocaine
TTITLE6=Sunshine Of Your Love
TTITLE7=Got My Mojo Working
EXTD=
EXTT0=
EXTT1=
EXTT2=
EXTT3=
EXTT4=
EXTT5=
EXTT6=
EXTT7=
PLAYORDER=
